<svg width="414" height="58" viewBox="0 0 414 58" fill="none" xmlns="http://www.w3.org/2000/svg">
<path d="M240.084 36.0416C243.907 32.2196 240.084 23.4766 240.084 16.6446C240.084 9.81265 237.624 14.1841 232.369 8.92879C227.113 3.67344 227.782 7.90161 222.312 2.43126C216.841 -3.03908 212.47 2.43126 204.563 2.43126C196.632 2.43126 190.35 16.6446 190.35 16.6446C174.775 16.6446 194.865 33.1751 188.176 39.8637C181.487 46.5524 195.271 46.9585 202.915 54.6026C210.559 62.2468 219.039 54.6026 228.857 54.6026C238.699 54.6026 226.683 43.3991 240.061 43.3991C253.486 43.423 236.262 39.8637 240.084 36.0416ZM227.543 36.2805C220.807 36.2805 226.851 41.9181 221.906 41.9181C216.961 41.9181 212.685 45.764 208.839 41.9181C204.993 38.0721 198.042 37.8571 201.41 34.4889C204.778 31.1207 194.673 22.7838 202.509 22.7838C202.509 22.7838 205.662 15.6174 209.675 15.6174C213.664 15.6174 215.862 12.8703 218.609 15.6174C221.356 18.3645 221.022 16.2385 223.673 18.8901C226.325 21.5416 227.567 19.344 227.567 22.7838C227.567 26.2237 229.502 30.6191 227.567 32.554C225.608 34.4889 234.28 36.2805 227.543 36.2805Z" fill="white"/>
<path d="M16.53 29.514C18.582 29.514 20.3807 29.248 21.926 28.716C23.4967 28.184 24.8013 27.4367 25.84 26.474C26.904 25.486 27.702 24.3207 28.234 22.978C28.766 21.61 29.032 20.1027 29.032 18.456C29.032 15.1373 27.9933 12.528 25.916 10.628C23.864 8.728 20.7353 7.778 16.53 7.778H12.094C9.88486 7.778 8.094 9.56886 8.094 11.778V25.514C8.094 27.7231 9.88486 29.514 12.094 29.514H16.53ZM16.53 1.432C20.026 1.432 23.066 1.83734 25.65 2.648C28.234 3.45867 30.3747 4.61134 32.072 6.106C33.7693 7.57534 35.0233 9.36134 35.834 11.464C36.67 13.5667 37.088 15.8973 37.088 18.456C37.088 21.0147 36.6447 23.3707 35.758 25.524C34.8713 27.652 33.5667 29.4887 31.844 31.034C30.1213 32.5793 27.968 33.7827 25.384 34.644C22.8253 35.48 19.874 35.898 16.53 35.898H12.094C9.88486 35.898 8.094 37.6889 8.094 39.898V52C8.094 54.2091 6.30314 56 4.094 56H4C1.79086 56 0 54.2091 0 52V5.432C0 3.22286 1.79086 1.432 4 1.432H16.53Z" fill="white"/>
<path d="M96.8596 28.716C96.8596 32.7947 96.201 36.544 94.8836 39.964C93.5916 43.3587 91.755 46.2973 89.3736 48.78C86.9923 51.2373 84.1423 53.15 80.8236 54.518C77.505 55.886 73.819 56.57 69.7656 56.57C65.7376 56.57 62.0516 55.886 58.7076 54.518C55.389 53.15 52.539 51.2373 50.1576 48.78C47.8016 46.2973 45.965 43.3587 44.6476 39.964C43.3303 36.544 42.6716 32.7947 42.6716 28.716C42.6716 24.6627 43.3303 20.926 44.6476 17.506C45.965 14.086 47.8016 11.1473 50.1576 8.69001C52.539 6.20734 55.389 4.282 58.7076 2.914C62.0516 1.52067 65.7376 0.824005 69.7656 0.824005C73.819 0.824005 77.505 1.52067 80.8236 2.914C84.1423 4.282 86.9923 6.20734 89.3736 8.69001C91.755 11.1473 93.5916 14.086 94.8836 17.506C96.201 20.926 96.8596 24.6627 96.8596 28.716ZM88.5756 28.716C88.5756 25.4733 88.1323 22.56 87.2456 19.976C86.359 17.392 85.0923 15.2007 83.4456 13.402C81.8243 11.6033 79.8483 10.2227 77.5176 9.26C75.2123 8.29734 72.6283 7.81601 69.7656 7.81601C66.903 7.81601 64.3063 8.29734 61.9756 9.26C59.6703 10.2227 57.6943 11.6033 56.0476 13.402C54.401 15.2007 53.1343 17.392 52.2476 19.976C51.361 22.56 50.9176 25.4733 50.9176 28.716C50.9176 31.984 51.361 34.91 52.2476 37.494C53.1343 40.0527 54.401 42.2313 56.0476 44.03C57.6943 45.8287 59.6703 47.2093 61.9756 48.172C64.3063 49.1093 66.903 49.578 69.7656 49.578C72.6283 49.578 75.2123 49.1093 77.5176 48.172C79.8483 47.2093 81.8243 45.8287 83.4456 44.03C85.0923 42.2313 86.359 40.0527 87.2456 37.494C88.1323 34.91 88.5756 31.984 88.5756 28.716Z" fill="white"/>
<path d="M135.257 10.324C135.004 10.7547 134.738 11.0713 134.459 11.274C134.181 11.4767 133.826 11.578 133.395 11.578C132.939 11.578 132.42 11.3753 131.837 10.97C131.255 10.5393 130.52 10.0707 129.633 9.56401C128.772 9.03201 127.733 8.56334 126.517 8.158C125.301 7.72734 123.845 7.512 122.147 7.512C120.551 7.512 119.145 7.72734 117.929 8.158C116.739 8.56334 115.738 9.13334 114.927 9.868C114.117 10.5773 113.496 11.426 113.065 12.414C112.66 13.3767 112.457 14.428 112.457 15.568C112.457 17.0373 112.825 18.2533 113.559 19.216C114.319 20.1787 115.307 21.002 116.523 21.686C117.739 22.37 119.12 22.9653 120.665 23.472C122.211 23.9787 123.794 24.5107 125.415 25.068C127.037 25.6 128.62 26.2207 130.165 26.93C131.711 27.6393 133.091 28.5387 134.307 29.628C135.523 30.692 136.499 32.0093 137.233 33.58C137.993 35.1253 138.373 37.0253 138.373 39.28C138.373 41.6867 137.955 43.9413 137.119 46.044C136.309 48.1467 135.118 49.9833 133.547 51.554C131.977 53.1247 130.039 54.366 127.733 55.278C125.453 56.1647 122.857 56.608 119.943 56.608C118.195 56.608 116.498 56.4307 114.851 56.076C113.205 55.7467 111.647 55.278 110.177 54.67C108.708 54.0367 107.327 53.2893 106.035 52.428C105.614 52.1328 105.206 51.8264 104.812 51.5088C103.428 50.3911 103.244 48.4133 104.157 46.886L104.933 45.588C105.161 45.284 105.427 45.0307 105.731 44.828C106.061 44.6253 106.428 44.524 106.833 44.524C107.365 44.524 107.973 44.8027 108.657 45.36C109.367 45.9173 110.228 46.538 111.241 47.222C112.28 47.8807 113.509 48.4887 114.927 49.046C116.371 49.6033 118.119 49.882 120.171 49.882C121.843 49.882 123.338 49.6667 124.655 49.236C125.973 48.78 127.075 48.1467 127.961 47.336C128.873 46.5 129.57 45.4993 130.051 44.334C130.533 43.1687 130.773 41.8767 130.773 40.458C130.773 38.862 130.406 37.5573 129.671 36.544C128.937 35.5307 127.961 34.682 126.745 33.998C125.529 33.314 124.149 32.7313 122.603 32.25C121.058 31.7687 119.475 31.2747 117.853 30.768C116.232 30.236 114.649 29.628 113.103 28.944C111.558 28.26 110.177 27.3733 108.961 26.284C107.745 25.1693 106.77 23.7887 106.035 22.142C105.301 20.47 104.933 18.418 104.933 15.986C104.933 14.0353 105.313 12.148 106.073 10.324C106.833 8.5 107.935 6.89134 109.379 5.498C110.849 4.07934 112.647 2.952 114.775 2.116C116.903 1.25467 119.335 0.824005 122.071 0.824005C125.137 0.824005 127.949 1.318 130.507 2.306C132.113 2.90416 133.587 3.66859 134.928 4.5993C136.382 5.60783 136.678 7.5643 135.868 9.13734L135.257 10.324Z" fill="white"/>
<path d="M185.565 4.814C185.565 6.68183 184.051 8.19601 182.183 8.19601H172.237C170.028 8.19601 168.237 9.98687 168.237 12.196V52C168.237 54.2091 166.418 56 164.209 56C162 56 160.181 54.2091 160.181 52V12.196C160.181 9.98687 158.39 8.19601 156.181 8.19601H146.159C144.291 8.19601 142.777 6.68183 142.777 4.814C142.777 2.94618 144.291 1.432 146.159 1.432H182.183C184.051 1.432 185.565 2.94618 185.565 4.814Z" fill="white"/>
<path d="M292.657 29.438C294.866 29.438 296.657 31.2289 296.657 33.438V48.6617C296.657 49.9523 296.043 51.1778 294.949 51.8629C292.692 53.2767 290.323 54.3771 287.841 55.164C284.725 56.1267 281.33 56.608 277.657 56.608C273.249 56.608 269.259 55.924 265.687 54.556C262.14 53.188 259.113 51.2753 256.605 48.818C254.097 46.3607 252.159 43.422 250.791 40.002C249.448 36.582 248.777 32.82 248.777 28.716C248.777 24.5867 249.423 20.812 250.715 17.392C252.032 13.9467 253.907 11.008 256.339 8.576C258.771 6.11867 261.71 4.21867 265.155 2.876C268.626 1.508 272.514 0.824005 276.821 0.824005C279 0.824005 281.014 0.988672 282.863 1.31801C284.738 1.64734 286.473 2.116 288.069 2.724C289.665 3.332 291.134 4.06667 292.477 4.928C292.877 5.17222 293.268 5.42616 293.65 5.68983C295.249 6.79242 295.517 8.97347 294.476 10.6126L293.959 11.426C293.604 12.0087 293.136 12.376 292.553 12.528C291.97 12.68 291.337 12.5407 290.653 12.11C289.994 11.73 289.26 11.2867 288.449 10.78C287.664 10.2733 286.714 9.80467 285.599 9.374C284.51 8.94334 283.23 8.576 281.761 8.272C280.292 7.96801 278.556 7.81601 276.555 7.81601C273.566 7.81601 270.868 8.31 268.461 9.298C266.054 10.2607 264.002 11.654 262.305 13.478C260.608 15.302 259.303 17.506 258.391 20.09C257.479 22.6487 257.023 25.524 257.023 28.716C257.023 32.06 257.504 35.062 258.467 37.722C259.43 40.3567 260.785 42.5987 262.533 44.448C264.306 46.272 266.447 47.6653 268.955 48.628C271.488 49.5907 274.313 50.072 277.429 50.072C278.645 50.072 279.772 50.0087 280.811 49.882C281.875 49.73 282.888 49.5273 283.851 49.274C284.814 49.0207 285.738 48.704 286.625 48.324C286.79 48.2554 286.954 48.1856 287.118 48.1146C288.492 47.5181 289.323 46.1279 289.323 44.6292V39.632C289.323 37.4229 287.532 35.632 285.323 35.632H281.267C280.76 35.632 280.342 35.48 280.013 35.176C279.709 34.872 279.557 34.492 279.557 34.036V33.438C279.557 31.2289 281.348 29.438 283.557 29.438H292.657Z" fill="white"/>
<path d="M358.406 28.716C358.406 32.7947 357.748 36.544 356.431 39.964C355.139 43.3587 353.302 46.2973 350.921 48.78C348.539 51.2373 345.689 53.15 342.371 54.518C339.052 55.886 335.366 56.57 331.312 56.57C327.284 56.57 323.599 55.886 320.255 54.518C316.936 53.15 314.086 51.2373 311.704 48.78C309.349 46.2973 307.512 43.3587 306.194 39.964C304.877 36.544 304.219 32.7947 304.219 28.716C304.219 24.6627 304.877 20.926 306.194 17.506C307.512 14.086 309.349 11.1473 311.704 8.69001C314.086 6.20734 316.936 4.282 320.255 2.914C323.599 1.52067 327.284 0.824005 331.312 0.824005C335.366 0.824005 339.052 1.52067 342.371 2.914C345.689 4.282 348.539 6.20734 350.921 8.69001C353.302 11.1473 355.139 14.086 356.431 17.506C357.748 20.926 358.406 24.6627 358.406 28.716ZM350.122 28.716C350.122 25.4733 349.679 22.56 348.793 19.976C347.906 17.392 346.639 15.2007 344.992 13.402C343.371 11.6033 341.395 10.2227 339.065 9.26C336.759 8.29734 334.175 7.81601 331.312 7.81601C328.45 7.81601 325.853 8.29734 323.522 9.26C321.217 10.2227 319.241 11.6033 317.595 13.402C315.948 15.2007 314.681 17.392 313.794 19.976C312.908 22.56 312.465 25.4733 312.465 28.716C312.465 31.984 312.908 34.91 313.794 37.494C314.681 40.0527 315.948 42.2313 317.595 44.03C319.241 45.8287 321.217 47.2093 323.522 48.172C325.853 49.1093 328.45 49.578 331.312 49.578C334.175 49.578 336.759 49.1093 339.065 48.172C341.395 47.2093 343.371 45.8287 344.992 44.03C346.639 42.2313 347.906 40.0527 348.793 37.494C349.679 34.91 350.122 31.984 350.122 28.716Z" fill="white"/>
<path d="M409.724 1.432C411.676 1.432 413.258 3.01423 413.258 4.966V52C413.258 54.2091 411.467 56 409.258 56H409.154C408.521 56 407.989 55.886 407.558 55.658C407.153 55.43 406.735 55.0627 406.304 54.556L376.72 16.29C376.352 15.8142 375.577 16.1071 375.6 16.708C375.651 17.3667 375.676 17.9873 375.676 18.57V52.447C375.676 54.4093 374.086 56 372.123 56C370.161 56 368.57 54.4093 368.57 52.447V5.432C368.57 3.22286 370.361 1.432 372.57 1.432H372.75C373.46 1.432 373.992 1.52067 374.346 1.69801C374.701 1.85 375.094 2.21734 375.524 2.8L405.11 41.0107C405.486 41.4956 406.274 41.1836 406.228 40.572C406.203 39.8627 406.19 39.204 406.19 38.596V4.96599C406.19 3.01422 407.773 1.432 409.724 1.432Z" fill="white"/>
</svg>
